<?xml version="1.0" encoding="UTF-8" standalone="no"?>
<!-- Created with Inkscape (http://www.inkscape.org/) -->

<svg
   xmlns:dc="http://purl.org/dc/elements/1.1/"
   xmlns:cc="http://creativecommons.org/ns#"
   xmlns:rdf="http://www.w3.org/1999/02/22-rdf-syntax-ns#"
   xmlns:svg="http://www.w3.org/2000/svg"
   xmlns="http://www.w3.org/2000/svg"
   xmlns:sodipodi="http://sodipodi.sourceforge.net/DTD/sodipodi-0.dtd"
   xmlns:inkscape="http://www.inkscape.org/namespaces/inkscape"
   width="512"
   height="512"
   viewBox="0 0 135.46666 135.46667"
   version="1.1"
   id="svg8"
   inkscape:version="0.92.4 5da689c313, 2019-01-14"
   sodipodi:docname="colibris.svg"
   inkscape:export-filename="/home/ccrisan/projects/colibris/extra/colibris.png"
   inkscape:export-xdpi="96"
   inkscape:export-ydpi="96">
  <defs
     id="defs2" />
  <sodipodi:namedview
     id="base"
     pagecolor="#ffffff"
     bordercolor="#666666"
     borderopacity="1.0"
     inkscape:pageopacity="0.0"
     inkscape:pageshadow="2"
     inkscape:zoom="0.98994949"
     inkscape:cx="426.29659"
     inkscape:cy="129.33302"
     inkscape:document-units="px"
     inkscape:current-layer="layer1"
     showgrid="true"
     inkscape:window-width="2560"
     inkscape:window-height="1025"
     inkscape:window-x="0"
     inkscape:window-y="27"
     inkscape:window-maximized="1"
     units="px">
    <inkscape:grid
       type="xygrid"
       id="grid4643" />
  </sodipodi:namedview>
  <metadata
     id="metadata5">
    <rdf:RDF>
      <cc:Work
         rdf:about="">
        <dc:format>image/svg+xml</dc:format>
        <dc:type
           rdf:resource="http://purl.org/dc/dcmitype/StillImage" />
        <dc:title></dc:title>
      </cc:Work>
    </rdf:RDF>
  </metadata>
  <g
     inkscape:label="Layer 1"
     inkscape:groupmode="layer"
     id="layer1"
     transform="translate(0,-161.53332)">
    <path
       style="fill:#767676;fill-opacity:1;stroke-width:0.99999994"
       d="m 67.734083,166.82544 c -2.904824,0 -5.809497,0.11992 -7.643711,0.36037 -14.308764,1.87611 -26.433763,7.82472 -36.524271,17.9172 -10.090541,10.09246 -16.038053,22.21979 -17.9137513,36.5313 -0.4809107,3.66915 -0.4809107,11.62126 0,15.29038 1.8756983,14.31152 7.8232103,26.43883 17.9137513,36.53131 10.008775,10.01069 22.088571,15.96919 36.306896,17.90826 v -0.002 c 3.349612,0.4575 12.047416,0.46225 15.504807,0.009 14.30873,-1.87611 26.433726,-7.82325 36.524276,-17.91571 10.09051,-10.09248 16.03655,-22.2198 17.91226,-36.53132 0.48088,-3.66913 0.48088,-11.62124 0,-15.29036 -1.87571,-14.31154 -7.82175,-26.43885 -17.91226,-36.53132 -10.09055,-10.09247 -22.215546,-16.0411 -36.524276,-17.91721 -1.834215,-0.24047 -4.738888,-0.36034 -7.643721,-0.36034 z m 29.339127,30.49291 c 1.4565,0 2.85953,0.11273 3.11912,0.25164 0.51845,0.27752 0.64599,0.96795 0.17866,0.96795 -0.835455,0 -9.392919,4.33128 -13.774757,6.9721 -7.207962,4.34405 -15.553083,10.42204 -18.635842,13.5734 v 0.002 c -1.750577,1.78955 -2.404033,2.02134 -3.404983,1.21067 -0.541209,-0.4384 -0.5431,-0.4542 -0.10272,-1.15857 4.610397,-7.37435 8.655236,-11.06946 18.116225,-16.55017 4.053256,-2.34804 6.721108,-3.61186 9.547944,-4.52397 1.991582,-0.64252 2.670677,-0.74457 4.956363,-0.74457 z m 15.84724,0.2591 c 1.59209,-0.0299 2.38065,0.30858 2.38065,1.01708 0,1.18275 -3.20655,5.27536 -9.41098,12.01279 -2.95868,3.2129 -8.149739,8.19434 -13.275988,12.741 -3.7016,3.39395 -7.5414,8.65492 -12.156403,11.93238 -0.04504,0.0323 1.069941,1.57652 2.477435,3.43245 1.407494,1.85591 3.558517,5.00057 4.780669,6.98846 2.565233,4.1725 4.415375,6.7216 14.228867,19.6029 3.70951,4.86916 3.86794,5.79575 0.4273,2.50322 -0.87206,-0.83453 -2.012,-1.91301 -2.532541,-2.39601 -0.926488,-0.85953 -0.936436,-0.86245 -0.489812,-0.14591 0.250912,0.40256 1.198343,1.79108 2.105203,3.08546 0.90689,1.29439 1.64965,2.52923 1.64965,2.74447 h -0.002 c 0,0.21527 -0.0929,0.39165 -0.20695,0.39165 -0.11397,0 -3.969763,-3.79714 -8.568292,-8.43889 -7.784752,-7.85785 -8.446548,-8.46574 -9.610475,-8.81118 -0.696184,-0.20662 -1.669608,-0.74868 -2.196043,-1.22406 -1.059632,-0.9569 -2.720504,-1.75699 -4.944446,-2.38113 l -1.494792,-0.41993 -2.246668,1.50998 c -2.501267,1.68219 -4.478184,2.68202 -5.315167,2.68491 -0.681606,0.003 -2.448726,-1.59446 -3.081897,-2.78467 -0.50641,-0.95177 -0.365731,-1.39574 0.294784,-0.92921 0.784119,0.55381 1.851108,1.09372 2.575699,1.30149 l 0.725067,0.20699 -0.610426,-0.66565 c -0.826526,-0.90023 -1.666015,-2.14524 -1.666015,-2.47195 0,-0.42187 0.368512,-0.31985 1.630287,0.44971 1.136928,0.69356 1.616833,0.83521 2.632269,0.77584 0.437347,-0.0254 0.426012,-0.0667 -0.12208,-0.44227 -0.331726,-0.22728 -1.206519,-0.92019 -1.944428,-1.54125 -1.793211,-1.50929 -3.325378,-2.56639 -6.10127,-4.20976 -3.856624,-2.28313 -5.896773,-4.39772 -7.685401,-7.96237 -0.466971,-0.93068 -0.848648,-1.76929 -0.848648,-1.8644 7e-6,-0.0951 -0.351141,-0.88412 -0.778661,-1.75269 -1.040849,-2.1147 -2.317352,-3.36709 -5.166279,-5.06752 -2.405969,-1.43602 -3.432748,-2.41011 -6.558353,-6.22157 -0.715254,-0.87225 -1.826501,-1.94113 -2.469985,-2.37516 -3.840082,-2.59003 -12.157444,-2.90619 -17.074043,-0.64926 -1.359729,0.62415 -1.859563,0.54257 -1.859563,-0.30377 0,-1.62735 1.865387,-2.72872 5.742461,-3.38927 1.93419,-0.32965 3.181423,-0.37384 6.555373,-0.23379 4.582917,0.19028 5.593528,0.0455 6.978206,-0.99474 1.861727,-1.39859 5.309818,-2.53748 7.677955,-2.53748 0.670804,0 1.892667,0.15876 2.715649,0.35291 3.761656,0.88728 5.942044,2.5816 7.622869,5.92526 1.165948,2.31941 2.1679,3.25429 4.993575,4.66097 1.686966,0.8397 2.265885,1.00815 3.470497,1.00815 1.439502,0 1.448993,-0.005 2.298768,-1.14962 1.551292,-2.09042 7.190007,-6.52715 14.024894,-11.03443 2.541648,-1.79784 5.276688,-3.33447 7.603516,-4.67589 7.06085,-4.08349 13.761503,-6.82346 19.086953,-7.80302 1.53822,-0.28295 2.78323,-0.43322 3.73848,-0.45121 z m -68.254478,17.35879 c -0.77687,4e-4 -1.40655,0.63019 -1.406962,1.4072 -4.11e-4,0.77761 0.629504,1.40831 1.406962,1.40872 0.778028,4.2e-4 1.408849,-0.63054 1.40844,-1.40872 -4.13e-4,-0.77761 -0.630992,-1.40762 -1.40844,-1.4072 z"
       id="path4625"
       inkscape:connector-curvature="0"
       sodipodi:nodetypes="sccccsccscccscsscssccccccscsscccccccccccsccccccccccccsccccccccscccscccscccscccccccccc" />
  </g>
</svg>
